<svg width="18" height="14" viewBox="0 0 18 14" fill="none" xmlns="http://www.w3.org/2000/svg">
<path d="M1.72764 4.11717C1.95534 4.26892 2.64171 4.71962 3.78677 5.46903C4.93188 6.21844 5.8091 6.79547 6.41849 7.20014C6.48544 7.2445 6.62768 7.34093 6.84528 7.48955C7.06292 7.63828 7.24375 7.75846 7.38765 7.85014C7.53165 7.94178 7.70573 8.04459 7.91006 8.15839C8.11433 8.27209 8.30688 8.35762 8.48768 8.41424C8.66852 8.47133 8.83591 8.4996 8.9899 8.4996H9H9.01013C9.16412 8.4996 9.33159 8.47129 9.51242 8.41424C9.69315 8.35762 9.88588 8.27199 10.09 8.15839C10.2942 8.04445 10.4682 7.94175 10.6122 7.85014C10.7562 7.75846 10.9369 7.63828 11.1546 7.48955C11.3722 7.3408 11.5146 7.2445 11.5816 7.20014C12.1975 6.79547 13.7647 5.76771 16.2824 4.11697C16.7712 3.79457 17.1796 3.40554 17.5077 2.95016C17.836 2.49498 18 2.01747 18 1.51789C18 1.10042 17.8409 0.743064 17.5228 0.445845C17.2047 0.14856 16.8279 0 16.3928 0H1.60708C1.09148 0 0.694703 0.164409 0.416801 0.493228C0.138934 0.822112 0 1.2332 0 1.72646C0 2.12489 0.184213 2.55665 0.552462 3.02147C0.920676 3.48632 1.31253 3.85159 1.72764 4.11717Z" fill="white"/>
<path d="M16.9954 5.13214C14.7992 6.53603 13.1316 7.62708 11.9934 8.40507C11.6117 8.67059 11.302 8.87786 11.0642 9.02639C10.8264 9.17501 10.5102 9.3268 10.115 9.48167C9.72 9.63678 9.35186 9.7141 9.01027 9.7141H9.00004H8.98994C8.64843 9.7141 8.28007 9.63678 7.88505 9.48167C7.49003 9.3268 7.17356 9.17501 6.93584 9.02639C6.69819 8.87786 6.38844 8.67059 6.00679 8.40507C5.10272 7.779 3.43868 6.68788 1.01461 5.13214C0.632818 4.89197 0.294649 4.61668 0 4.30684V11.839C0 12.2567 0.157299 12.6138 0.472071 12.9111C0.786774 13.2084 1.16519 13.357 1.60718 13.357H16.393C16.8348 13.357 17.2132 13.2084 17.528 12.9111C17.8428 12.6137 18 12.2567 18 11.839V4.30684C17.712 4.61027 17.3773 4.88556 16.9954 5.13214Z" fill="white"/>
</svg>
