<svg width="129" height="118" viewBox="0 0 129 118" fill="none" xmlns="http://www.w3.org/2000/svg">
<path d="M2.59804 91.9714C2.36951 91.9714 2.17706 91.9112 2.0207 91.791C1.87636 91.6586 1.8042 91.4842 1.8042 91.2677V78.5842C1.8042 78.3798 1.87035 78.2114 2.00266 78.0791C2.13497 77.9468 2.30336 77.8806 2.50783 77.8806H6.89203C7.61371 77.8806 8.26322 78.037 8.84056 78.3497C9.42993 78.6504 9.89301 79.0654 10.2298 79.5946C10.5786 80.1238 10.753 80.7372 10.753 81.4349C10.753 82.0844 10.5786 82.6617 10.2298 83.1669C9.88098 83.6721 9.42392 84.057 8.8586 84.3216C9.66448 84.5381 10.314 84.947 10.8071 85.5484C11.3003 86.1378 11.5469 86.8896 11.5469 87.8037C11.5469 88.6216 11.3604 89.3433 10.9876 89.9687C10.6147 90.5942 10.0975 91.0873 9.43594 91.4482C8.78643 91.797 8.0407 91.9714 7.19874 91.9714H2.59804ZM3.21147 90.6182H7.19874C7.77608 90.6182 8.28727 90.504 8.73231 90.2754C9.17734 90.0469 9.52615 89.7221 9.77874 89.3012C10.0313 88.8802 10.1576 88.381 10.1576 87.8037C10.1576 87.2624 10.0313 86.7933 9.77874 86.3964C9.52615 85.9875 9.17734 85.6747 8.73231 85.4582C8.28727 85.2297 7.77608 85.1154 7.19874 85.1154H3.21147V90.6182ZM3.21147 83.7623H6.89203C7.61371 83.7623 8.20909 83.5578 8.67818 83.1489C9.14727 82.7399 9.38182 82.1686 9.38182 81.4349C9.38182 80.7132 9.14727 80.1659 8.67818 79.7931C8.20909 79.4202 7.61371 79.2338 6.89203 79.2338H3.21147V83.7623ZM15.648 85.8912C15.6841 85.1455 15.8765 84.4779 16.2254 83.8886C16.5862 83.2992 17.0493 82.8361 17.6146 82.4993C18.1919 82.1626 18.8294 81.9942 19.527 81.9942C20.0803 81.9942 20.5073 82.0724 20.808 82.2287C21.1087 82.3851 21.223 82.6136 21.1508 82.9143C21.1027 83.0947 21.0185 83.215 20.8982 83.2752C20.79 83.3353 20.6517 83.3593 20.4833 83.3473C20.3269 83.3353 20.1465 83.3233 19.942 83.3112C19.2684 83.2511 18.667 83.3233 18.1378 83.5277C17.6206 83.7202 17.2056 84.0209 16.8929 84.4298C16.5922 84.8388 16.4419 85.3259 16.4419 85.8912H15.648ZM15.7563 91.9714C15.5398 91.9714 15.3714 91.9112 15.2511 91.791C15.1308 91.6707 15.0707 91.5023 15.0707 91.2858V82.788C15.0707 82.5715 15.1308 82.4031 15.2511 82.2828C15.3714 82.1626 15.5398 82.1024 15.7563 82.1024C15.9728 82.1024 16.1412 82.1626 16.2614 82.2828C16.3817 82.4031 16.4419 82.5715 16.4419 82.788V91.2858C16.4419 91.5023 16.3817 91.6707 16.2614 91.791C16.1412 91.9112 15.9728 91.9714 15.7563 91.9714ZM25.2284 91.9714C25.0119 91.9714 24.8375 91.9112 24.7052 91.791C24.5849 91.6586 24.5248 91.4842 24.5248 91.2677V82.8061C24.5248 82.5896 24.5849 82.4212 24.7052 82.3009C24.8375 82.1686 25.0119 82.1024 25.2284 82.1024C25.4329 82.1024 25.5953 82.1686 25.7156 82.3009C25.8479 82.4212 25.914 82.5896 25.914 82.8061V91.2677C25.914 91.4842 25.8479 91.6586 25.7156 91.791C25.5953 91.9112 25.4329 91.9714 25.2284 91.9714ZM25.2104 80.2261C24.9458 80.2261 24.7172 80.1298 24.5248 79.9374C24.3324 79.7449 24.2361 79.5104 24.2361 79.2338C24.2361 78.9331 24.3324 78.6985 24.5248 78.5301C24.7293 78.3497 24.9638 78.2595 25.2284 78.2595C25.481 78.2595 25.7035 78.3497 25.896 78.5301C26.1005 78.6985 26.2027 78.9331 26.2027 79.2338C26.2027 79.5104 26.1065 79.7449 25.914 79.9374C25.7216 80.1298 25.487 80.2261 25.2104 80.2261ZM34.7016 92.0616C33.7514 92.0616 32.9094 91.8511 32.1757 91.4301C31.442 90.9971 30.8647 90.4017 30.4437 89.644C30.0347 88.8862 29.8303 88.0202 29.8303 87.0459C29.8303 86.0596 30.0468 85.1876 30.4798 84.4298C30.9128 83.6721 31.5082 83.0827 32.2659 82.6617C33.0237 82.2287 33.8837 82.0122 34.8459 82.0122C35.8202 82.0122 36.6802 82.2287 37.4259 82.6617C38.1837 83.0827 38.7731 83.6721 39.194 84.4298C39.627 85.1876 39.8496 86.0596 39.8616 87.0459L39.0497 87.4789C39.0497 88.369 38.8633 89.1628 38.4904 89.8605C38.1175 90.5461 37.6003 91.0873 36.9388 91.4842C36.2893 91.8691 35.5436 92.0616 34.7016 92.0616ZM34.882 95.8684C33.9318 95.8684 33.0959 95.688 32.3742 95.3272C31.6525 94.9784 31.0571 94.4972 30.588 93.8838C30.4557 93.7395 30.3956 93.5831 30.4076 93.4147C30.4317 93.2463 30.5219 93.108 30.6782 92.9998C30.8346 92.8915 31.009 92.8554 31.2015 92.8915C31.3939 92.9276 31.5442 93.0178 31.6525 93.1621C32.0013 93.5952 32.4463 93.944 32.9876 94.2086C33.5409 94.4732 34.1784 94.6055 34.9001 94.6055C35.5736 94.6055 36.181 94.4431 36.7223 94.1184C37.2636 93.7936 37.6905 93.3365 38.0033 92.7472C38.328 92.1578 38.4904 91.4662 38.4904 90.6724V87.93L39.0136 86.8835L39.8616 87.0459V90.7265C39.8616 91.7007 39.6451 92.5728 39.2121 93.3426C38.7791 94.1244 38.1897 94.7378 37.444 95.1828C36.6982 95.6399 35.8442 95.8684 34.882 95.8684ZM34.8459 90.7986C35.5556 90.7986 36.181 90.6423 36.7223 90.3296C37.2756 90.0048 37.7086 89.5598 38.0213 88.9945C38.334 88.4291 38.4904 87.7796 38.4904 87.0459C38.4904 86.3122 38.334 85.6627 38.0213 85.0974C37.7086 84.52 37.2756 84.075 36.7223 83.7623C36.181 83.4375 35.5556 83.2752 34.8459 83.2752C34.1363 83.2752 33.5048 83.4375 32.9515 83.7623C32.3982 84.075 31.9652 84.52 31.6525 85.0974C31.3398 85.6627 31.1834 86.3122 31.1834 87.0459C31.1834 87.7796 31.3398 88.4291 31.6525 88.9945C31.9652 89.5598 32.3982 90.0048 32.9515 90.3296C33.5048 90.6423 34.1363 90.7986 34.8459 90.7986ZM44.1693 87.948C43.9527 87.948 43.7783 87.8819 43.646 87.7496C43.5258 87.6172 43.4656 87.4489 43.4656 87.2444V78.5842C43.4656 78.3677 43.5258 78.1993 43.646 78.0791C43.7783 77.9468 43.9527 77.8806 44.1693 77.8806C44.3737 77.8806 44.5361 77.9468 44.6564 78.0791C44.7887 78.1993 44.8548 78.3677 44.8548 78.5842V87.2444C44.8548 87.4489 44.7887 87.6172 44.6564 87.7496C44.5361 87.8819 44.3737 87.948 44.1693 87.948ZM51.9273 91.9714C51.7228 91.9714 51.5544 91.9052 51.4221 91.7729C51.2898 91.6406 51.2237 91.4782 51.2237 91.2858V86.5949C51.2237 85.8491 51.0793 85.2357 50.7907 84.7546C50.514 84.2735 50.1291 83.9126 49.636 83.6721C49.1548 83.4315 48.6076 83.3112 47.9941 83.3112C47.4048 83.3112 46.8695 83.4255 46.3884 83.654C45.9193 83.8826 45.5465 84.1953 45.2698 84.5922C44.9932 84.9891 44.8548 85.4402 44.8548 85.9454H43.8625C43.8866 85.1876 44.0911 84.514 44.476 83.9247C44.8609 83.3233 45.372 82.8542 46.0095 82.5174C46.647 82.1686 47.3567 81.9942 48.1385 81.9942C48.9925 81.9942 49.7562 82.1746 50.4298 82.5354C51.1034 82.8842 51.6326 83.4014 52.0175 84.087C52.4144 84.7726 52.6129 85.6086 52.6129 86.5949V91.2858C52.6129 91.4782 52.5467 91.6406 52.4144 91.7729C52.2821 91.9052 52.1197 91.9714 51.9273 91.9714ZM44.1693 91.9714C43.9527 91.9714 43.7783 91.9112 43.646 91.791C43.5258 91.6586 43.4656 91.4903 43.4656 91.2858V82.8061C43.4656 82.5896 43.5258 82.4212 43.646 82.3009C43.7783 82.1686 43.9527 82.1024 44.1693 82.1024C44.3737 82.1024 44.5361 82.1686 44.6564 82.3009C44.7887 82.4212 44.8548 82.5896 44.8548 82.8061V91.2858C44.8548 91.4903 44.7887 91.6586 44.6564 91.791C44.5361 91.9112 44.3737 91.9714 44.1693 91.9714ZM60.4387 91.9714C59.8012 91.9714 59.2299 91.821 58.7247 91.5203C58.2316 91.2196 57.8407 90.8107 57.552 90.2935C57.2633 89.7642 57.119 89.1628 57.119 88.4893V79.6668C57.119 79.4623 57.1791 79.2939 57.2994 79.1616C57.4317 79.0293 57.6001 78.9631 57.8046 78.9631C58.0091 78.9631 58.1775 79.0293 58.3098 79.1616C58.4421 79.2939 58.5082 79.4623 58.5082 79.6668V88.4893C58.5082 89.1027 58.6887 89.6079 59.0495 90.0048C59.4103 90.3897 59.8734 90.5821 60.4387 90.5821H60.9259C61.1183 90.5821 61.2747 90.6483 61.395 90.7806C61.5152 90.9129 61.5754 91.0813 61.5754 91.2858C61.5754 91.4903 61.5032 91.6586 61.3589 91.791C61.2145 91.9112 61.0341 91.9714 60.8176 91.9714H60.4387ZM55.9463 83.6721C55.7659 83.6721 55.6155 83.6179 55.4952 83.5097C55.375 83.3894 55.3148 83.2451 55.3148 83.0767C55.3148 82.8963 55.375 82.7519 55.4952 82.6437C55.6155 82.5234 55.7659 82.4633 55.9463 82.4633H60.547C60.7274 82.4633 60.8777 82.5234 60.998 82.6437C61.1183 82.7519 61.1784 82.8963 61.1784 83.0767C61.1784 83.2451 61.1183 83.3894 60.998 83.5097C60.8777 83.6179 60.7274 83.6721 60.547 83.6721H55.9463ZM81.6251 92.1518C80.8553 92.1518 80.1396 92.0435 79.4781 91.827C78.8286 91.5985 78.2632 91.2798 77.7821 90.8708C77.301 90.4619 76.9341 89.9868 76.6816 89.4455C76.5853 89.2531 76.5793 89.0786 76.6635 88.9223C76.7597 88.7539 76.9161 88.6396 77.1326 88.5795C77.301 88.5314 77.4634 88.5494 77.6197 88.6336C77.7881 88.7178 77.9144 88.8441 77.9986 89.0125C78.179 89.3613 78.4437 89.674 78.7925 89.9507C79.1413 90.2273 79.5562 90.4438 80.0374 90.6002C80.5185 90.7445 81.0477 90.8167 81.6251 90.8167C82.2625 90.8167 82.8279 90.7145 83.321 90.51C83.8141 90.2935 84.199 89.9868 84.4757 89.5898C84.7644 89.1809 84.9087 88.6877 84.9087 88.1104C84.9087 87.3767 84.6381 86.7452 84.0968 86.216C83.5555 85.6868 82.7076 85.35 81.5529 85.2056C80.1456 85.0372 79.0451 84.6042 78.2512 83.9066C77.4574 83.197 77.0604 82.331 77.0604 81.3086C77.0604 80.5749 77.2529 79.9374 77.6378 79.3961C78.0347 78.8549 78.576 78.4399 79.2616 78.1512C79.9472 77.8505 80.735 77.7002 81.6251 77.7002C82.2866 77.7002 82.888 77.8084 83.4293 78.0249C83.9705 78.2294 84.4396 78.5061 84.8365 78.8549C85.2455 79.1917 85.5762 79.5645 85.8288 79.9735C85.9491 80.1659 85.9852 80.3524 85.9371 80.5328C85.901 80.7132 85.7988 80.8515 85.6304 80.9477C85.45 81.0319 85.2635 81.044 85.0711 80.9838C84.8907 80.9237 84.7523 80.8094 84.6561 80.641C84.4757 80.3644 84.2472 80.1058 83.9705 79.8652C83.7059 79.6126 83.3811 79.4142 82.9962 79.2698C82.6114 79.1255 82.1483 79.0473 81.607 79.0353C80.6568 79.0353 79.893 79.2398 79.3157 79.6487C78.7383 80.0456 78.4497 80.629 78.4497 81.3988C78.4497 81.8077 78.5579 82.1866 78.7744 82.5354C78.9909 82.8722 79.3458 83.1669 79.8389 83.4195C80.3441 83.66 81.0176 83.8405 81.8596 83.9607C83.3631 84.1772 84.4757 84.6403 85.1974 85.35C85.9311 86.0476 86.2979 86.9617 86.2979 88.0924C86.2979 88.7419 86.1776 89.3192 85.9371 89.8244C85.7086 90.3296 85.3778 90.7565 84.9448 91.1054C84.5238 91.4421 84.0246 91.7007 83.4473 91.8812C82.882 92.0616 82.2746 92.1518 81.6251 92.1518ZM103.295 91.9714C103.091 91.9714 102.923 91.9112 102.79 91.791C102.658 91.6586 102.592 91.4903 102.592 91.2858V86.0897C102.592 85.2357 102.369 84.5621 101.924 84.069C101.479 83.5638 100.908 83.3112 100.21 83.3112C99.4645 83.3112 98.8511 83.5638 98.37 84.069C97.9009 84.5621 97.6723 85.2237 97.6844 86.0536H96.4395C96.4515 85.2477 96.6259 84.5381 96.9627 83.9247C97.2995 83.3112 97.7626 82.8361 98.3519 82.4993C98.9413 82.1626 99.6088 81.9942 100.355 81.9942C101.064 81.9942 101.69 82.1626 102.231 82.4993C102.784 82.8361 103.211 83.3112 103.512 83.9247C103.825 84.5381 103.981 85.2598 103.981 86.0897V91.2858C103.981 91.4903 103.915 91.6586 103.783 91.791C103.662 91.9112 103.5 91.9714 103.295 91.9714ZM90.6661 91.9714C90.4495 91.9714 90.2751 91.9112 90.1428 91.791C90.0226 91.6586 89.9624 91.4903 89.9624 91.2858V82.8061C89.9624 82.6016 90.0226 82.4332 90.1428 82.3009C90.2751 82.1686 90.4495 82.1024 90.6661 82.1024C90.8705 82.1024 91.0329 82.1686 91.1532 82.3009C91.2855 82.4332 91.3516 82.6016 91.3516 82.8061V91.2858C91.3516 91.4903 91.2855 91.6586 91.1532 91.791C91.0329 91.9112 90.8705 91.9714 90.6661 91.9714ZM96.9988 91.9714C96.7943 91.9714 96.6259 91.9112 96.4936 91.791C96.3613 91.6586 96.2951 91.4903 96.2951 91.2858V86.0897C96.2951 85.2357 96.0726 84.5621 95.6276 84.069C95.1826 83.5638 94.6112 83.3112 93.9136 83.3112C93.1679 83.3112 92.5544 83.5578 92.0733 84.051C91.5922 84.5321 91.3516 85.1635 91.3516 85.9454H90.3593C90.3834 85.1756 90.5518 84.496 90.8645 83.9066C91.1893 83.3052 91.6283 82.8361 92.1816 82.4993C92.7349 82.1626 93.3603 81.9942 94.0579 81.9942C94.7676 81.9942 95.393 82.1626 95.9343 82.4993C96.4876 82.8361 96.9146 83.3112 97.2153 83.9247C97.528 84.5381 97.6844 85.2598 97.6844 86.0897V91.2858C97.6844 91.4903 97.6182 91.6586 97.4859 91.791C97.3656 91.9112 97.2033 91.9714 96.9988 91.9714ZM108.947 91.9714C108.731 91.9714 108.556 91.9112 108.424 91.791C108.304 91.6586 108.244 91.4842 108.244 91.2677V82.8061C108.244 82.5896 108.304 82.4212 108.424 82.3009C108.556 82.1686 108.731 82.1024 108.947 82.1024C109.152 82.1024 109.314 82.1686 109.434 82.3009C109.567 82.4212 109.633 82.5896 109.633 82.8061V91.2677C109.633 91.4842 109.567 91.6586 109.434 91.791C109.314 91.9112 109.152 91.9714 108.947 91.9714ZM108.929 80.2261C108.665 80.2261 108.436 80.1298 108.244 79.9374C108.051 79.7449 107.955 79.5104 107.955 79.2338C107.955 78.9331 108.051 78.6985 108.244 78.5301C108.448 78.3497 108.683 78.2595 108.947 78.2595C109.2 78.2595 109.422 78.3497 109.615 78.5301C109.819 78.6985 109.922 78.9331 109.922 79.2338C109.922 79.5104 109.825 79.7449 109.633 79.9374C109.44 80.1298 109.206 80.2261 108.929 80.2261ZM116.201 91.9714C115.72 91.9714 115.287 91.8391 114.902 91.5745C114.529 91.3098 114.235 90.943 114.018 90.4739C113.814 90.0048 113.712 89.4635 113.712 88.8501V78.5662C113.712 78.3617 113.772 78.1993 113.892 78.0791C114.024 77.9468 114.193 77.8806 114.397 77.8806C114.602 77.8806 114.764 77.9468 114.884 78.0791C115.017 78.1993 115.083 78.3617 115.083 78.5662V88.8501C115.083 89.3673 115.185 89.7883 115.389 90.1131C115.606 90.4378 115.877 90.6002 116.201 90.6002H116.652C116.833 90.6002 116.977 90.6663 117.085 90.7986C117.194 90.9189 117.248 91.0813 117.248 91.2858C117.248 91.4903 117.17 91.6586 117.013 91.791C116.869 91.9112 116.676 91.9714 116.436 91.9714H116.201ZM123.995 92.0616C123.02 92.0616 122.154 91.8511 121.397 91.4301C120.651 90.9971 120.061 90.4017 119.628 89.644C119.207 88.8862 118.997 88.0202 118.997 87.0459C118.997 86.0596 119.195 85.1936 119.592 84.4479C120.001 83.6901 120.561 83.0947 121.27 82.6617C121.98 82.2287 122.798 82.0122 123.724 82.0122C124.638 82.0122 125.432 82.2227 126.106 82.6437C126.791 83.0526 127.32 83.624 127.693 84.3577C128.066 85.0914 128.253 85.9273 128.253 86.8655C128.253 87.0579 128.192 87.2143 128.072 87.3346C127.952 87.4428 127.795 87.497 127.603 87.497H119.935V86.3423H127.747L126.972 86.9016C126.984 86.204 126.857 85.5785 126.593 85.0252C126.328 84.4719 125.949 84.0389 125.456 83.7262C124.975 83.4135 124.398 83.2571 123.724 83.2571C123.038 83.2571 122.437 83.4195 121.92 83.7442C121.403 84.069 121 84.52 120.711 85.0974C120.434 85.6627 120.296 86.3122 120.296 87.0459C120.296 87.7796 120.452 88.4291 120.765 88.9945C121.09 89.5598 121.529 90.0048 122.082 90.3296C122.635 90.6543 123.273 90.8167 123.995 90.8167C124.428 90.8167 124.861 90.7445 125.294 90.6002C125.739 90.4438 126.094 90.2514 126.358 90.0228C126.49 89.9146 126.641 89.8605 126.809 89.8605C126.978 89.8484 127.122 89.8905 127.242 89.9868C127.399 90.1311 127.477 90.2875 127.477 90.4558C127.489 90.6242 127.423 90.7686 127.278 90.8889C126.881 91.2256 126.376 91.5083 125.763 91.7368C125.149 91.9533 124.56 92.0616 123.995 92.0616Z" fill="white"/>
<path d="M79.0734 111.792C79.1726 111.792 79.2606 111.83 79.3373 111.907L80.0544 112.685C79.6575 113.176 79.1681 113.553 78.5863 113.815C78.0089 114.076 77.3143 114.207 76.5024 114.207C75.7762 114.207 75.1222 114.083 74.5404 113.835C73.963 113.587 73.4691 113.242 73.0587 112.8C72.6482 112.358 72.3325 111.83 72.1115 111.217C71.895 110.603 71.7867 109.933 71.7867 109.207C71.7867 108.472 71.904 107.8 72.1385 107.191C72.3731 106.578 72.7023 106.05 73.1263 105.608C73.5548 105.166 74.0645 104.823 74.6554 104.579C75.2463 104.331 75.9003 104.207 76.6174 104.207C77.3301 104.207 77.9616 104.325 78.5118 104.559C79.0666 104.794 79.538 105.1 79.9259 105.479L79.317 106.325C79.2809 106.379 79.2335 106.426 79.1749 106.467C79.1208 106.508 79.0441 106.528 78.9449 106.528C78.8772 106.528 78.8073 106.51 78.7351 106.474C78.663 106.433 78.584 106.386 78.4983 106.332C78.4126 106.273 78.3134 106.21 78.2006 106.142C78.0879 106.075 77.9571 106.014 77.8082 105.96C77.6594 105.901 77.4857 105.854 77.2873 105.818C77.0933 105.777 76.8678 105.757 76.6107 105.757C76.1732 105.757 75.7717 105.836 75.4064 105.993C75.0455 106.147 74.7343 106.372 74.4727 106.67C74.2111 106.963 74.0081 107.324 73.8638 107.753C73.7195 108.177 73.6473 108.661 73.6473 109.207C73.6473 109.757 73.724 110.247 73.8773 110.675C74.0352 111.104 74.2472 111.465 74.5133 111.758C74.7794 112.051 75.0929 112.277 75.4537 112.434C75.8146 112.588 76.2025 112.664 76.6174 112.664C76.8655 112.664 77.0888 112.651 77.2873 112.624C77.4902 112.597 77.6752 112.554 77.842 112.495C78.0134 112.437 78.1736 112.362 78.3224 112.272C78.4758 112.177 78.6269 112.062 78.7757 111.927C78.8208 111.886 78.8682 111.855 78.9178 111.832C78.9674 111.805 79.0193 111.792 79.0734 111.792ZM89.6027 112.597V114.099H83.8721V104.316H85.6921V112.597H89.6027ZM95.2999 114.099H93.4731V104.316H95.2999V114.099ZM108.309 104.316V114.099H107.375C107.231 114.099 107.109 114.076 107.01 114.031C106.915 113.982 106.822 113.9 106.732 113.788L101.624 107.265C101.651 107.563 101.665 107.838 101.665 108.091V114.099H100.061V104.316H101.015C101.092 104.316 101.157 104.32 101.211 104.329C101.27 104.334 101.32 104.347 101.36 104.37C101.405 104.388 101.448 104.417 101.489 104.458C101.529 104.494 101.575 104.543 101.624 104.606L106.753 111.156C106.739 110.998 106.728 110.842 106.719 110.689C106.71 110.536 106.705 110.393 106.705 110.263V104.316H108.309ZM114.885 114.099H113.058V104.316H114.885V114.099ZM126.365 111.792C126.464 111.792 126.552 111.83 126.629 111.907L127.346 112.685C126.949 113.176 126.46 113.553 125.878 113.815C125.3 114.076 124.606 114.207 123.794 114.207C123.068 114.207 122.414 114.083 121.832 113.835C121.254 113.587 120.761 113.242 120.35 112.8C119.94 112.358 119.624 111.83 119.403 111.217C119.186 110.603 119.078 109.933 119.078 109.207C119.078 108.472 119.195 107.8 119.43 107.191C119.664 106.578 119.994 106.05 120.418 105.608C120.846 105.166 121.356 104.823 121.947 104.579C122.538 104.331 123.192 104.207 123.909 104.207C124.622 104.207 125.253 104.325 125.803 104.559C126.358 104.794 126.829 105.1 127.217 105.479L126.608 106.325C126.572 106.379 126.525 106.426 126.466 106.467C126.412 106.508 126.336 106.528 126.236 106.528C126.169 106.528 126.099 106.51 126.027 106.474C125.954 106.433 125.875 106.386 125.79 106.332C125.704 106.273 125.605 106.21 125.492 106.142C125.379 106.075 125.248 106.014 125.1 105.96C124.951 105.901 124.777 105.854 124.579 105.818C124.385 105.777 124.159 105.757 123.902 105.757C123.465 105.757 123.063 105.836 122.698 105.993C122.337 106.147 122.026 106.372 121.764 106.67C121.503 106.963 121.3 107.324 121.155 107.753C121.011 108.177 120.939 108.661 120.939 109.207C120.939 109.757 121.015 110.247 121.169 110.675C121.327 111.104 121.539 111.465 121.805 111.758C122.071 112.051 122.384 112.277 122.745 112.434C123.106 112.588 123.494 112.664 123.909 112.664C124.157 112.664 124.38 112.651 124.579 112.624C124.782 112.597 124.967 112.554 125.133 112.495C125.305 112.437 125.465 112.362 125.614 112.272C125.767 112.177 125.918 112.062 126.067 111.927C126.112 111.886 126.16 111.855 126.209 111.832C126.259 111.805 126.311 111.792 126.365 111.792Z" fill="white"/>
<rect x="2.1571" y="111.884" width="60.3998" height="1.07857" fill="white"/>
<path d="M73.9173 2.97629C73.8353 2.99679 73.7533 3.0173 73.6712 3.03781C67.6731 4.85263 61.9211 5.03719 56.2305 2.08427C50.5707 -0.807141 42.1118 -1.36083 38.3899 4.82186C37.0365 7.06732 36.4828 9.71266 36.1752 12.3272C35.0679 21.4628 36.2367 31.7981 38.2976 40.7491C39.7126 46.7473 42.4809 54.6833 48.0792 58.0361C49.4634 58.8666 51.2475 59.3587 52.6932 58.6513C53.7082 58.1283 54.3542 57.1133 54.8156 56.0675C56.4458 52.284 58.0146 38.4729 64.9047 41.5181C66.535 42.2256 67.6423 43.7944 68.2268 45.4554C69.4264 49.0235 68.9035 52.93 70.5953 56.3751C71.1182 57.4209 71.8257 58.4975 72.933 58.8973C73.7635 59.2049 74.6863 59.0511 75.5168 58.7743C79.208 57.4516 82.0994 53.3298 83.7912 49.977C89.574 38.4729 91.6656 25.1232 89.7585 12.3888C89.1433 8.29772 87.6054 4.23743 83.5451 2.51489C80.5306 1.22299 77.0548 2.02274 73.9173 2.97629Z" fill="#F9FFF9"/>
<path d="M50.6015 50.4692C50.4169 51.2074 49.4634 51.4535 49.002 50.8383C47.0334 48.4083 45.3416 44.4403 44.1727 39.3957C41.958 29.891 41.2506 20.54 42.1426 13.0654C42.3579 11.4352 42.6963 9.37431 43.5575 7.9286C43.8344 7.46721 44.6956 6.0215 47.8331 6.0215C49.6479 6.0215 51.7088 6.54441 53.4314 7.43644C57.2148 9.40505 61.3058 10.3894 65.5507 10.3894C68.6882 10.3894 71.9179 9.89721 75.4245 8.82062L75.6398 8.7591C77.0548 8.32846 78.6851 7.86708 80.0077 7.86708C80.4999 7.86708 80.8998 7.9286 81.2074 8.0824C81.6687 8.26696 83.1452 8.88214 83.7912 13.2808C85.6367 25.5231 83.4528 38.5345 77.3009 49.3003C77.0548 49.731 76.8087 50.1616 76.3781 50.4077C74.5017 51.5765 74.6248 48.5313 74.5633 47.6086C74.5222 46.9113 74.43 46.2141 74.2864 45.5169C74.0404 44.1635 73.6405 42.8408 73.0253 41.5797C71.8256 39.1189 69.857 37.0887 67.3347 35.9814C65.9198 35.3662 64.4741 35.0586 63.0284 35.0586C54.3849 35.0586 52.201 44.5326 50.6015 50.4692Z" fill="#F0F5F0"/>
<path d="M101.909 17.7717C101.17 16.3875 99.6016 15.2802 97.7252 14.8188C95.2644 14.2343 92.7114 14.5112 90.0968 14.911C90.1583 15.5672 90.2096 16.2337 90.2506 16.9104C92.7422 16.5413 95.1107 16.2645 97.2331 16.7874C98.5557 17.095 99.6631 17.8332 100.124 18.7252C100.401 19.2174 100.432 19.7096 100.248 20.2325C99.9707 21.063 99.2017 21.8935 97.9713 22.6932C95.6028 24.2927 92.9575 25.4924 90.2506 26.5382C88.8049 27.1226 87.3285 27.6455 85.852 28.1377C79.1772 30.4139 71.6718 32.0749 62.9668 33.213C55.1231 34.2589 46.2336 35.397 37.4978 34.7818C37.3748 34.7613 37.2415 34.751 37.0979 34.751C35.4369 34.5972 33.5913 34.3819 31.9611 33.7667C30.2078 33.1208 28.8851 32.1057 28.3314 30.9368C27.9623 30.1678 27.9316 29.4603 28.2392 28.7529C28.7621 27.5225 30.5461 25.7077 35.8368 23.7391C35.8163 23.0418 35.7958 22.3446 35.7753 21.6474C30.4846 23.493 27.4087 25.5539 26.3936 27.9531C25.8707 29.2143 25.9014 30.5062 26.5166 31.8288C27.3164 33.4591 28.9774 34.8125 31.2536 35.6738C33.2838 36.412 35.4677 36.6581 37.3748 36.7812C37.3953 36.7812 37.4261 36.7812 37.4671 36.7812C39.2101 36.9042 40.9429 36.9657 42.6654 36.9657C49.8017 36.9657 56.8764 36.0429 63.2437 35.2124C72.0717 34.0743 79.7001 32.3825 86.5287 30.0448C87.6668 29.6449 88.8664 29.2143 90.0353 28.7836C93.1728 27.6148 96.3103 26.2306 99.0786 24.385C100.709 23.3084 101.693 22.1703 102.155 20.9092C102.524 19.8633 102.431 18.756 101.909 17.7717Z" fill="#4378FB"/>
<path d="M101.847 12.0812C101.109 10.697 99.54 9.58962 97.6637 9.12822C95.0799 8.51303 91.8809 8.88216 89.0818 9.31279L89.5739 11.2814C92.1577 10.8815 94.9569 10.5432 97.2023 11.0968C98.4942 11.4044 99.6016 12.1427 100.094 13.0347C100.34 13.5269 100.401 14.019 100.217 14.5419C99.9092 15.3724 99.1402 16.2029 97.9098 17.0335C95.6028 18.5714 93.019 19.7711 90.3737 20.7861C88.8664 21.4013 87.3285 21.9242 85.8212 22.4471C79.1156 24.7234 71.6103 26.3844 62.936 27.5225C55.0616 28.5683 46.172 29.7064 37.4671 29.0912C37.0569 29.0502 36.6365 29.0092 36.2059 28.9682C34.791 28.8452 33.2837 28.5991 31.8996 28.0762C30.1463 27.4302 28.8236 26.4152 28.2699 25.2463C27.9316 24.4773 27.9008 23.7698 28.1776 23.0623C28.7006 21.832 30.4846 20.0172 35.7138 18.0793C35.7343 17.3616 35.765 16.6438 35.806 15.9261C30.4539 17.7717 27.3779 19.8633 26.3321 22.2626C25.8091 23.5237 25.8399 24.8156 26.4551 26.1383C27.2549 27.7686 28.9466 29.122 31.1921 29.9833C32.9454 30.5985 34.791 30.8753 36.4827 31.0291C36.7698 31.0496 37.0467 31.0701 37.3133 31.0906C39.0768 31.2137 40.8404 31.2752 42.6039 31.2752C49.7709 31.2752 56.8149 30.3524 63.1821 29.5219C72.0101 28.3838 79.6385 26.692 86.4672 24.3542C87.7591 23.8929 89.051 23.4315 90.3737 22.9393C93.3881 21.8012 96.3718 20.4785 99.0171 18.6945C100.647 17.6179 101.662 16.4798 102.093 15.2186C102.462 14.1728 102.401 13.0655 101.847 12.0812Z" fill="#00ADEF"/>
<path d="M97.6945 11.8043L101.416 12.5118L97.5099 13.1885L96.9255 17.0027L96.1565 13.25L92.4346 12.5118L96.095 11.6198L96.9255 8.02089L97.6945 11.8043Z" fill="#F9FFF9"/>
<path d="M101.386 18.5099L104 19.0328L101.263 19.4942L100.863 22.1703L100.309 19.525L97.6945 19.0021L100.278 18.3869L100.863 15.8646L101.386 18.5099Z" fill="#F9FFF9"/>
</svg>
