<svg width="19" height="19" viewBox="0 0 19 19" fill="none" xmlns="http://www.w3.org/2000/svg">
<g clip-path="url(#clip0_4005_5311)">
<path d="M0.322543 8.80514L4.53024 10.3756L6.15888 15.6133C6.26308 15.9487 6.67329 16.0727 6.94556 15.8501L9.291 13.9381C9.53685 13.7377 9.88704 13.7278 10.144 13.9143L14.3743 16.9856C14.6656 17.1973 15.0782 17.0377 15.1513 16.6857L18.2502 1.77923C18.3299 1.39477 17.9522 1.07405 17.5861 1.21563L0.317612 7.8773C-0.108538 8.04165 -0.104825 8.64499 0.322543 8.80514ZM5.8964 9.5396L14.1198 4.47479C14.2676 4.38404 14.4197 4.58387 14.2927 4.7016L7.50605 11.0102C7.2675 11.2322 7.11362 11.5294 7.07004 11.8519L6.83885 13.5652C6.80824 13.7939 6.4869 13.8166 6.42378 13.5952L5.53465 10.4711C5.43282 10.1148 5.58122 9.73414 5.8964 9.5396Z" fill="white"/>
</g>
<defs>
<clipPath id="clip0_4005_5311">
<rect width="18.261" height="18.261" fill="white"/>
</clipPath>
</defs>
</svg>
