<?xml version="1.0" standalone="no"?>
<!DOCTYPE svg PUBLIC "-//W3C//DTD SVG 20010904//EN"
 "http://www.w3.org/TR/2001/REC-SVG-20010904/DTD/svg10.dtd">
<svg version="1.0" xmlns="http://www.w3.org/2000/svg"
 width="260.000000pt" height="260.000000pt" viewBox="0 0 260.000000 260.000000"
 preserveAspectRatio="xMidYMid meet">
<metadata>
Created by potrace 1.14, written by Peter Selinger 2001-2017
</metadata>
<g transform="translate(0.000000,260.000000) scale(0.100000,-0.100000)"
fill="#000000" stroke="none">
<path d="M0 1300 l0 -1300 1300 0 1300 0 0 1300 0 1300 -1300 0 -1300 0 0
-1300z m938 780 c24 -6 85 -28 137 -50 149 -64 294 -70 455 -20 85 27 184 35
238 21 126 -35 202 -198 202 -436 l0 -62 -57 -22 c-277 -106 -751 -187 -1155
-198 -207 -5 -218 -5 -225 13 -5 11 -8 114 -8 229 1 165 5 225 18 279 22 87
62 161 105 194 71 54 188 75 290 52z m1224 -270 c4 -33 7 -35 44 -38 48 -4 71
-22 29 -22 -55 0 -75 -10 -76 -39 0 -14 -4 -35 -8 -46 -7 -16 -10 -12 -17 25
-9 43 -12 46 -54 56 l-45 11 45 14 c31 10 46 20 48 34 8 57 13 70 22 55 5 -9
10 -31 12 -50z m110 -207 c6 -7 20 -13 32 -14 15 -1 13 -4 -11 -11 -25 -8 -33
-17 -33 -34 0 -13 -4 -24 -10 -24 -5 0 -10 11 -10 24 0 19 -7 26 -37 33 l-38
10 35 10 c22 6 36 16 38 29 7 40 16 49 20 19 2 -16 8 -36 14 -42z m-302 -172
l0 -49 -87 -30 c-202 -72 -411 -118 -714 -157 -203 -27 -602 -46 -611 -29 -3
5 -8 29 -12 54 l-6 45 177 1 c366 2 864 81 1153 183 47 16 88 30 93 30 4 1 7
-21 7 -48z m-15 -168 c-28 -232 -154 -540 -266 -655 -87 -89 -153 -109 -208
-63 -36 31 -56 88 -76 223 -8 57 -24 121 -35 142 -37 72 -112 105 -169 75 -58
-29 -94 -107 -155 -326 -21 -74 -54 -121 -94 -133 -94 -27 -236 109 -306 292
-25 65 -76 251 -76 277 0 9 50 14 193 18 377 11 942 106 1140 192 56 25 60 22
52 -42z"/>
</g>
</svg>
